<svg xmlns="http://www.w3.org/2000/svg" width="640" height="640" viewBox="0 0 640 640" fill="none">
  <rect width="640" height="640" rx="36" fill="white"/>
  <rect x="44" y="44" width="552" height="552" rx="24" fill="#F7F9FC" stroke="#D7E1F5" stroke-width="8"/>
  <rect x="86" y="86" width="124" height="124" fill="#111827"/>
  <rect x="110" y="110" width="76" height="76" fill="white"/>
  <rect x="430" y="86" width="124" height="124" fill="#111827"/>
  <rect x="454" y="110" width="76" height="76" fill="white"/>
  <rect x="86" y="430" width="124" height="124" fill="#111827"/>
  <rect x="110" y="454" width="76" height="76" fill="white"/>
  <g fill="#111827">
    <rect x="268" y="98" width="24" height="24"/>
    <rect x="316" y="98" width="24" height="24"/>
    <rect x="340" y="122" width="24" height="24"/>
    <rect x="292" y="146" width="24" height="24"/>
    <rect x="244" y="146" width="24" height="24"/>
    <rect x="268" y="170" width="24" height="24"/>
    <rect x="364" y="170" width="24" height="24"/>
    <rect x="388" y="146" width="24" height="24"/>
    <rect x="244" y="242" width="24" height="24"/>
    <rect x="292" y="242" width="24" height="24"/>
    <rect x="340" y="242" width="24" height="24"/>
    <rect x="388" y="242" width="24" height="24"/>
    <rect x="244" y="290" width="24" height="24"/>
    <rect x="316" y="290" width="24" height="24"/>
    <rect x="364" y="290" width="24" height="24"/>
    <rect x="412" y="290" width="24" height="24"/>
    <rect x="268" y="314" width="24" height="24"/>
    <rect x="340" y="338" width="24" height="24"/>
    <rect x="388" y="338" width="24" height="24"/>
    <rect x="244" y="362" width="24" height="24"/>
    <rect x="292" y="362" width="24" height="24"/>
    <rect x="412" y="362" width="24" height="24"/>
    <rect x="244" y="410" width="24" height="24"/>
    <rect x="316" y="410" width="24" height="24"/>
    <rect x="364" y="410" width="24" height="24"/>
    <rect x="412" y="410" width="24" height="24"/>
    <rect x="268" y="458" width="24" height="24"/>
    <rect x="316" y="458" width="24" height="24"/>
    <rect x="340" y="482" width="24" height="24"/>
    <rect x="388" y="482" width="24" height="24"/>
    <rect x="244" y="506" width="24" height="24"/>
    <rect x="292" y="530" width="24" height="24"/>
    <rect x="364" y="530" width="24" height="24"/>
    <rect x="412" y="530" width="24" height="24"/>
    <rect x="458" y="266" width="24" height="24"/>
    <rect x="506" y="314" width="24" height="24"/>
    <rect x="482" y="362" width="24" height="24"/>
    <rect x="458" y="410" width="24" height="24"/>
    <rect x="506" y="458" width="24" height="24"/>
  </g>
  <g>
    <rect x="236" y="236" width="168" height="168" rx="28" fill="white" stroke="#D7E1F5" stroke-width="8"/>
    <circle cx="320" cy="292" r="34" fill="#1F3A68"/>
    <circle cx="320" cy="285" r="18" fill="#F5C0A5"/>
    <path d="M278 341C286 317 303 305 320 305C337 305 354 317 362 341V350H278V341Z" fill="#4A6FAE"/>
    <text x="320" y="390" text-anchor="middle" font-family="PingFang SC, Microsoft YaHei, sans-serif" font-size="28" font-weight="700" fill="#10233E">转见未来</text>
    <text x="320" y="424" text-anchor="middle" font-family="PingFang SC, Microsoft YaHei, sans-serif" font-size="16" fill="#7A8CA8">二维码占位图</text>
  </g>
</svg>
